:SAMPLES-PER-SECOND 30
:FRAME-RANGE 1-1390
:FULLY-SPECIFIED
:DEGREES
1260
root  -94.1611 38.0255 4.01629 178.328 76.1203 -177.189
RightUpLeg  -0.43997 -12.3292 0.7842
RightLeg  24.2026 1.41192 0.466239
RightFoot  -24.4673 0.469857 5.52417
RightToes  6.35937e-011 1.2921e-014 -6.02303e-014
Spine  5.96621 0.19932 7.56885
Spine1  5.32455 1.14834 -2.11454
HEad  5.10457 16.2414 -1.79636
LeftShoulder1  1.16834 -1.22482 -19.544
LeftArm  10.3796 9.05554 -54.0469
LeftForeArm  39.786 -4.34093 -14.0724
LeftHand  -0.0424901 4.84245 4.32289
RightShoulder  1.59138 1.89189 24.5038
RightArm  -30.1981 -4.81401 33.8739
RightForeArm  78.2253 -4.39181 0.0847768
RightHand  0.515468 -10.6793 -12.0359
LeftUpLeg  -27.1407 -10.2335 2.23197
LeftLeg  48.0332 5.68678 7.16016
LeftFoot  -15.1471 -0.0802292 -5.14302
LeftToes  4.52251e-011 4.07896e-011 -5.42348e-012
1261
root  -94.6144 38.195 4.16311 178.483 79.2498 -178.169
RightUpLeg  -1.94115 -11.0731 0.804891
RightLeg  22.7801 3.26893 1.28387
RightFoot  -23.6768 0.563024 6.69143
RightToes  6.35937e-011 1.2921e-014 -6.02303e-014
Spine  5.48448 -0.0111516 7.24025
Spine1  5.61814 0.862437 -1.90741
HEad  3.84205 19.069 -3.72955
LeftShoulder1  1.16619 -1.28167 -19.15
LeftArm  11.3869 9.24884 -53.6069
LeftForeArm  39.6139 -3.68245 -14.4441
LeftHand  -0.0350198 5.062 4.12631
RightShoulder  1.50896 1.66535 24.2168
RightArm  -28.4161 -5.56721 32.0295
RightForeArm  77.6249 -4.6003 1.16168
RightHand  0.510198 -10.3385 -12.6867
LeftUpLeg  -24.2653 -9.76616 1.62976
LeftLeg  48.4822 3.84194 5.07238
LeftFoot  -15.565 -0.167002 -7.04883
LeftToes  4.52251e-011 4.07896e-011 -5.42348e-012
1262
root  -95.0064 38.3759 4.3177 179.027 82.1222 -178.998
RightUpLeg  -3.47967 -10.2502 0.976848
RightLeg  21.068 5.21628 2.00182
RightFoot  -22.41 0.5694 7.43828
RightToes  6.35937e-011 1.2921e-014 -6.02303e-014
Spine  4.69025 -0.394781 6.60977
Spine1  5.77785 0.295879 -1.57311
HEad  3.26575 22.0769 -5.01697
LeftShoulder1  1.18348 -1.36462 -19.0629
LeftArm  4.91821 9.42728 -53.1361
LeftForeArm  46.1722 -0.365096 -14.0877
LeftHand  -0.0353279 5.00153 3.4632
RightShoulder  1.47932 1.60532 23.9678
RightArm  -25.9472 -6.54437 30.8361
RightForeArm  75.6626 -4.94037 2.69393
RightHand  0.556581 -10.2816 -13.8643
LeftUpLeg  -20.9158 -9.44526 1.04076
LeftLeg  46.2296 2.37429 3.07247
LeftFoot  -16.5563 -0.295651 -8.65431
LeftToes  4.52251e-011 4.07896e-011 -5.42348e-012
1263
root  -95.3297 38.5867 4.48928 -179.986 84.7024 -179.66
RightUpLeg  -5.14879 -9.418 1.36918
RightLeg  19.1357 6.74935 2.52038
RightFoot  -20.2601 0.41763 7.1105
RightToes  6.35937e-011 1.2921e-014 -6.02303e-014
Spine  3.46561 -0.845195 5.63878
Spine1  6.07162 -0.430017 -1.03271
HEad  2.96464 25.146 -5.58321
LeftShoulder1  1.2281 -1.56312 -18.938
LeftArm  3.30321 9.22633 -52.5319
LeftForeArm  47.5597 2.1645 -14.1145
LeftHand  -0.0220453 5.57634 3.08521
RightShoulder  1.35848 1.2294 23.772
RightArm  -24.7761 -7.08185 30.6489
RightForeArm  73.1993 -5.16519 3.43695
RightHand  0.507825 -9.57474 -14.7615
LeftUpLeg  -17.2578 -9.54581 0.521454
LeftLeg  40.9834 1.09941 1.41265
LeftFoot  -16.6664 -0.374342 -10.1714
LeftToes  4.52251e-011 4.07896e-011 -5.42348e-012
1264
root  -95.597 38.7792 4.70424 -179.226 87.009 179.36
RightUpLeg  -6.49741 -7.25925 1.89826
RightLeg  16.6467 6.8407 2.49316
RightFoot  -18.7018 0.3873 7.98445
RightToes  6.35937e-011 1.2921e-014 -6.02303e-014
Spine  2.18603 -1.39857 4.31428
Spine1  6.26683 -1.26162 -0.510926
HEad  2.62904 28.0746 -5.52252
LeftShoulder1  1.25624 -1.74184 -18.5769
LeftArm  2.05172 8.88242 -52.0154
LeftForeArm  48.4575 4.70582 -14.0049
LeftHand  -0.018209 5.85348 2.66739
RightShoulder  1.26376 0.887409 23.9484
RightArm  -23.2965 -7.80794 30.8994
RightForeArm  69.4789 -5.46578 4.36122
RightHand  0.489928 -9.28878 -15.264
LeftUpLeg  -13.2634 -9.81478 0.175018
LeftLeg  32.8425 0.0569732 0.396368
LeftFoot  -14.0584 -0.230791 -13.2215
LeftToes  4.52251e-011 4.07896e-011 -5.42348e-012
